<?xml version="1.0" ?><svg id="Слой_1" style="enable-background:new 0 0 128 128;" version="1.1" viewBox="0 0 128 128" xml:space="preserve" xmlns="http://www.w3.org/2000/svg" xmlns:xlink="http://www.w3.org/1999/xlink"><style type="text/css">
	.st0{fill:#3DB39E;}
	.st1{fill:#37A18E;}
	.st2{fill:#F2F1EF;}
	.st3{fill:#E6E5E3;}
</style><g><circle class="st0" cx="64" cy="64" r="64"/></g><path class="st1" d="M117.6,29.1L61,87.7l0.1,6.3l2.6,0L125,44.6C123.2,39.1,120.7,33.8,117.6,29.1z"/><path class="st2" d="M126.8,26.3l-11.3-11.2c-1.5-1.5-4-1.5-5.6,0L61.6,65L40.7,44.4c-1.5-1.5-4-1.5-5.6,0l-10,9.9  c-1.5,1.5-1.5,4,0,5.5l33.4,33.1c0.9,0.9,2.1,1.2,3.3,1.1c1.2,0.1,2.4-0.2,3.3-1.1l61.7-61C128.3,30.3,128.3,27.8,126.8,26.3z"/><path class="st3" d="M65.1,92.9l61.7-61c1.5-1.5,1.5-4,0-5.5l-1.8-1.7L61.7,86.9l-35-34.1l-1.5,1.5c-1.5,1.5-1.5,4,0,5.5l33.4,33.1  c0.9,0.9,2.1,1.2,3.3,1.1C63,94.1,64.2,93.8,65.1,92.9z"/></svg>