<svg width="50" height="50" xmlns="http://www.w3.org/2000/svg">

 <g>
  <title>background</title>
  <rect fill="none" id="canvas_background" height="402" width="582" y="-1" x="-1"/>
 </g>
 <g>
  <title>Layer 1</title>
  <path fill="#ffffff" id="svg_1" d="m1,8.259l0,0.741c0,15.767 8.366,30.655 21.835,38.853l2.165,1.317l2.165,-1.318c13.469,-8.197 21.835,-23.085 21.835,-38.852l0,-0.741l-24,-7.304l-24,7.304zm25.126,37.886l-1.126,0.685l-1.126,-0.685c-12.665,-7.71 -20.611,-21.607 -20.867,-36.406l21.993,-6.694l21.993,6.693c-0.256,14.8 -8.202,28.697 -20.867,36.407z"/>
  <polygon fill="#ffffff" id="svg_2" points="15.707,25.293 14.293,26.707 22,34.414 41.707,14.707 40.293,13.293 22,31.586  "/>
 </g>
</svg>