<svg width="24" height="24" xmlns="http://www.w3.org/2000/svg">

 <g>
  <title>background</title>
  <rect fill="none" id="canvas_background" height="402" width="582" y="-1" x="-1"/>
 </g>
 <g>
  <title fill="#6a6a6a">Layer 1</title>
  <path fill="#6a6a6a" id="svg_2" d="m21.9,2.1c-2.7,-2.7 -7.2,-2.7 -9.9,0l-9.9,9.9c-2.7,2.7 -2.7,7.2 0,9.9c2.7,2.7 7.2,2.7 9.9,0l9.9,-9.9c2.7,-2.7 2.7,-7.2 0,-9.9zm-11.3,18.4c-2,2 -5.1,2 -7.1,0s-2,-5.1 0,-7.1l4.2,-4.2l7.1,7.1l-4.2,4.2zm9.9,-9.9l-4.2,4.2l-7.1,-7l4.2,-4.2c2,-2 5.1,-2 7.1,0s1.9,5 0,7z"/>
  <path fill="#6a6a6a" id="svg_3" d="m19.8,4.2l-0.7,0.7c1.2,1.2 1.2,3.1 0,4.2l0.7,0.7c1.5,-1.5 1.5,-4 0,-5.6z"/>
 </g>
</svg>