<svg width="96" height="96" xmlns="http://www.w3.org/2000/svg">

 <title/>
 <g>
  <title>background</title>
  <rect fill="none" id="canvas_background" height="402" width="582" y="-1" x="-1"/>
 </g>
 <g>
  <title fill="#6a6a6a">Layer 1</title>
  <path fill="#6a6a6a" id="svg_1" d="m75.11,74.86l-18.35,-25.69a1.17,1.17 0 0 1 -0.22,-0.67l0,-18.5a1.16,1.16 0 0 1 1.16,-1.15l1.39,0a2.16,2.16 0 0 0 0,-4.31l-14.83,0a2.16,2.16 0 0 0 0,4.31l1.39,0a1.16,1.16 0 0 1 1.16,1.15l0,18.5a1.17,1.17 0 0 1 -0.22,0.67l-0.88,1.23a14.77,14.77 0 0 0 -7.64,-4.82l0,-11.38a0.73,0.73 0 0 1 0.74,-0.72l1,0a1.74,1.74 0 0 0 0,-3.47l-11,0a1.74,1.74 0 0 0 0,3.47l1,0a0.73,0.73 0 0 1 0.74,0.72l0,11.38a14.85,14.85 0 0 0 -1.55,28.23l-0.75,1a2.16,2.16 0 0 0 1.75,3.46l43.36,0a2.16,2.16 0 0 0 1.75,-3.41zm-54.64,-14.86a13.78,13.78 0 0 1 10.71,-13.54l0,0a0.48,0.48 0 0 0 0.36,-0.34a0.4,0.4 0 0 0 0,-0.15l0,-11.77a1.73,1.73 0 0 0 -1.74,-1.72l-1,0a0.74,0.74 0 0 1 0,-1.47l11.05,0a0.74,0.74 0 0 1 0,1.47l-1,0a1.73,1.73 0 0 0 -1.74,1.72l0,11.8a0.4,0.4 0 0 0 0,0.15a0.48,0.48 0 0 0 0.36,0.34l0,0a13.84,13.84 0 0 1 7.63,4.79l-15.51,21.72a13.8,13.8 0 0 1 -9.12,-13zm53.91,16.64a1.11,1.11 0 0 1 -1,0.63l-43.38,0a1.16,1.16 0 0 1 -0.93,-1.83l1.12,-1.57l15.93,-22.3s0,0 0,0l1.27,-1.79a2.16,2.16 0 0 0 0.4,-1.25l0,-18.53a2.16,2.16 0 0 0 -2.16,-2.15l-1.37,0a1.16,1.16 0 0 1 0,-2.31l14.83,0a1.16,1.16 0 0 1 0,2.31l-1.39,0a2.16,2.16 0 0 0 -2.16,2.15l0,18.5a2.16,2.16 0 0 0 0.4,1.25l18.35,25.69a1.11,1.11 0 0 1 0.09,1.2z" class="cls-1"/>
  <path fill="#6a6a6a" id="svg_2" d="m51.78,19.21a2.33,2.33 0 1 0 2.33,-2.33a2.33,2.33 0 0 0 -2.33,2.33zm3.66,0a1.33,1.33 0 1 1 -1.33,-1.33a1.32,1.32 0 0 1 1.33,1.33z" class="cls-1"/>
  <path fill="#6a6a6a" id="svg_3" d="m47.35,19.29a2.33,2.33 0 1 0 -2.35,-2.29a2.33,2.33 0 0 0 2.35,2.29zm0,-3.66a1.33,1.33 0 1 1 -1.35,1.37a1.33,1.33 0 0 1 1.35,-1.37z" class="cls-1"/>
  <path fill="#6a6a6a" id="svg_4" d="m53,13.65a2.33,2.33 0 1 0 -2.34,-2.33a2.33,2.33 0 0 0 2.34,2.33zm0,-3.65a1.33,1.33 0 1 1 -1.34,1.33a1.34,1.34 0 0 1 1.34,-1.33z" class="cls-1"/>
  <path fill="#6a6a6a" id="svg_5" d="m33.73,25.63a1.85,1.85 0 1 0 1.84,-1.85a1.85,1.85 0 0 0 -1.84,1.85zm2.69,0a0.85,0.85 0 1 1 -0.85,-0.85a0.85,0.85 0 0 1 0.85,0.85z" class="cls-1"/>
  <path fill="#6a6a6a" id="svg_6" d="m30.62,25.82a1.85,1.85 0 1 0 -1.85,-1.82a1.85,1.85 0 0 0 1.85,1.82zm0,-2.69a0.85,0.85 0 1 1 -0.85,0.84a0.85,0.85 0 0 1 0.85,-0.84z" class="cls-1"/>
  <path fill="#6a6a6a" id="svg_7" d="m34.75,21.68a1.84,1.84 0 1 0 -1.85,-1.84a1.84,1.84 0 0 0 1.85,1.84zm0,-2.68a0.84,0.84 0 1 1 -0.85,0.84a0.85,0.85 0 0 1 0.85,-0.84z" class="cls-1"/>
 </g>
</svg>