<svg width="64" height="64" xmlns="http://www.w3.org/2000/svg">

 <g>
  <title>background</title>
  <rect fill="none" id="canvas_background" height="402" width="582" y="-1" x="-1"/>
 </g>
 <g>
  <title fill="#666666">Layer 1</title>
  <path id="svg_1" fill="#666666" d="m55.239,3.555c-6.69,-5.466 -16.548,-4.475 -22.018,2.219l-26.679,32.651c-5.468,6.69 -4.477,16.552 2.216,22.019c6.694,5.469 16.552,4.478 22.021,-2.216l26.678,-32.654c5.468,-6.692 4.477,-16.55 -2.218,-22.019zm-23.343,45.54l-2.92,3.574c-3.946,4.832 -11.17,5.455 -16.138,1.396c-0.308,-0.252 -0.594,-0.519 -0.87,-0.794c-0.532,-0.655 0.34,-0.804 0.34,-0.804l0.01,-0.02c3.082,0.411 11.245,0.868 18.823,-4.207l0.012,0.029c0,0 0.415,-0.181 0.614,0c0.2,0.183 0.339,0.568 0.129,0.826zm22.346,-24.964l-4.572,5.597c-0.086,0.112 -0.16,0.23 -0.251,0.341l-5.705,6.984l-18.754,-14.794l10.805,-13.222c4.169,-5.103 11.686,-5.859 16.787,-1.691c5.103,4.169 5.858,11.684 1.69,16.785z"/>
 </g>
</svg>