<svg width="48" height="48" xmlns="http://www.w3.org/2000/svg">

 <g>
  <title>background</title>
  <rect fill="none" id="canvas_background" height="402" width="582" y="-1" x="-1"/>
 </g>
 <g>
  <title>Layer 1</title>
  <path fill="#666666" id="svg_1" fill-rule="evenodd" d="m44.602,23.775l-22.796,22.796c-0.032,0.048 -0.053,0.102 -0.095,0.144c-0.197,0.196 -0.457,0.287 -0.715,0.281c-0.258,0.006 -0.518,-0.085 -0.715,-0.281c-0.042,-0.042 -0.062,-0.096 -0.095,-0.144l-16.761,-16.761c-0.048,-0.032 -0.101,-0.053 -0.144,-0.095c-0.197,-0.197 -0.286,-0.457 -0.281,-0.715c-0.006,-0.258 0.084,-0.518 0.281,-0.715c0.043,-0.042 0.096,-0.062 0.144,-0.095l22.796,-22.795c0.183,-0.235 0.455,-0.395 0.775,-0.395l0.021,0c0.002,0 0.004,0 0.006,0l4.029,0c0.133,-1.502 0.746,-2.82 1.67,-3.683l0.016,0.018c0.196,-0.207 0.463,-0.335 0.758,-0.335c0.592,0 1.072,0.512 1.072,1.143c0,0.375 -0.18,0.691 -0.441,0.899c-0.479,0.442 -0.82,1.139 -0.934,1.958l4.775,0c0.002,0 0.004,0 0.008,0l0.02,0c0.32,0 0.594,0.16 0.775,0.395l5.83,5.83c0.234,0.183 0.395,0.456 0.395,0.776l0,0.021c0,0.002 0,0.004 0,0.006l0,10.945c0,0.002 0,0.004 0,0.007l0,0.02c0,0.32 -0.16,0.593 -0.394,0.775zm-10.348,-7.109c-0.193,0.206 -0.461,0.334 -0.758,0.334c-0.592,0 -1.07,-0.512 -1.07,-1.143c0,-0.375 0.18,-0.691 0.441,-0.9c0.248,-0.229 0.451,-0.537 0.617,-0.883c-0.855,0.228 -1.488,1 -1.488,1.925c0,1.104 0.896,2 2,2c1.105,0 2,-0.896 2,-2c0,-0.473 -0.17,-0.901 -0.445,-1.244c-0.615,1.547 -1.297,1.911 -1.297,1.911zm8.742,-4.285l-5.381,-5.381l-4.213,0c0.174,0.444 0.424,0.822 0.725,1.1l0,0c0.041,0.033 0.092,0.053 0.127,0.092l0.018,-0.018c1.041,0.973 1.725,2.508 1.725,4.254c0,0.042 -0.01,0.079 -0.012,0.12c1.197,0.691 2.012,1.97 2.012,3.452c0,2.209 -1.791,4 -4,4s-4,-1.791 -4,-4c0,-2.147 1.695,-3.885 3.82,-3.982c-0.09,-0.888 -0.441,-1.648 -0.949,-2.118c-0.041,-0.033 -0.092,-0.053 -0.129,-0.092l-0.016,0.018c-0.744,-0.695 -1.293,-1.685 -1.553,-2.826l-3.793,0l-22,22l15.619,15.619l22,-22l0,-10.238zm-28.714,14.904c0.382,-0.381 1,-0.381 1.381,0l7.049,7.049c0.381,0.381 0.381,0.999 0,1.381c-0.381,0.381 -1,0.381 -1.381,0l-7.049,-7.049c-0.381,-0.381 -0.381,-0.999 0,-1.381zm4,-4c0.382,-0.381 1,-0.381 1.381,0l7.048,7.049c0.381,0.381 0.381,0.999 0,1.381c-0.381,0.381 -1,0.381 -1.381,0l-7.048,-7.049c-0.381,-0.381 -0.381,-0.999 0,-1.381z" clip-rule="evenodd"/>
 </g>
</svg>