<?xml version="1.0" ?><svg id="Слой_1" style="enable-background:new 0 0 128 128;" version="1.1" viewBox="0 0 128 128" xml:space="preserve" xmlns="http://www.w3.org/2000/svg" xmlns:xlink="http://www.w3.org/1999/xlink"><style type="text/css">
	.st0{fill:#EFC75E;}
	.st1{fill:#D7B354;}
	.st2{fill:#BF9F4B;}
	.st3{fill:#CDCFCF;}
	.st4{fill:#AC8F43;}
	.st5{fill:#CCD0D2;}
	.st6{fill:#DCDEDF;}
	.st7{fill:#E4E7E7;}
	.st8{fill:#B7BBBD;}
	.st9{fill:#C6C7C8;}
</style><path class="st0" d="M103.2,109.2L103.2,109.2c0,10.4-17.5,18.8-39.2,18.8c-21.6,0-39.2-8.4-39.2-18.8l0,0L17,25h94L103.2,109.2z"/><path class="st1" d="M17,25l1.2,12.9C25.7,46.8,43.4,53,64,53c20.6,0,38.3-6.2,45.8-15.1L111,25H17z"/><g><g><path class="st1" d="M64,66.4c-1.7,0-3.2,1.4-3.2,3.2v42.7c0,1.7,1.4,3.2,3.2,3.2c1.7,0,3.2-1.4,3.2-3.2V69.5    C67.2,67.8,65.7,66.4,64,66.4z M79.8,64.8c-1.7,0-3.2,1.4-3.2,3.2L75,110.6c0,1.7,1.4,3.2,3.2,3.2c1.7,0,3.2-1.4,3.2-3.2L82.9,68    C82.9,66.2,81.5,64.8,79.8,64.8z M94,61.6c-1.7,0-3.2,1.4-3.2,3.2l-3.2,41.9c0,1.7,1.4,3.2,3.2,3.2c1.7,0,3.2-1.4,3.2-3.2    l3.2-41.9C97.2,63.1,95.7,61.6,94,61.6z M48.2,64.8c-1.7,0-3.2,1.4-3.2,3.2l1.6,42.7c0,1.7,1.4,3.2,3.2,3.2s3.2-1.4,3.2-3.2    L51.4,68C51.4,66.2,49.9,64.8,48.2,64.8z M34,61.6c-1.7,0-3.2,1.4-3.2,3.2l3.2,41.9c0,1.7,1.4,3.2,3.2,3.2s3.2-1.4,3.2-3.2    l-3.2-41.9C37.1,63.1,35.7,61.6,34,61.6z"/></g></g><path class="st0" d="M108.8,18.3c3.9,3.9,3.1,8.4,3.1,8.6c0,13.3-21.5,24.1-48,24.1S16,40.2,16,26.9c0-0.1-0.7-4.8,3-8.6  C21.8,15.2,106.1,15.2,108.8,18.3z"/><path class="st2" d="M64,0c26,0,47,10.3,47,23c0,12.7-21,23-47,23S17,35.7,17,23C17,10.3,38,0,64,0z"/><path class="st3" d="M37,34.8L32.4,40c8.4,3.6,19.4,5.9,31.6,5.9s23.2-2.2,31.6-5.9L91,34.8c-7.7,2.9-17,4.7-27,4.7  C53.9,39.5,44.6,37.7,37,34.8z"/><path class="st4" d="M64,8c21.1,0,39.2,6.3,47,15.2c0-0.1,0-0.1,0-0.2c0-12.7-21-23-47-23S17,10.3,17,23c0,0.1,0,0.1,0,0.2  C24.8,14.3,42.9,8,64,8z"/><path class="st5" d="M64,46c12.2,0,23.3-2.3,31.6-6L81.4,23.7L61.9,46C62.6,46,63.3,46,64,46z"/><path class="st6" d="M40.3,42.7l0.3,0.3C47.5,44.9,55.5,46,64,46c6.8,0,13.3-0.7,19.2-2l1.3-1.3L62.4,17.4L40.3,42.7z"/><path class="st7" d="M64,46c0.7,0,1.4,0,2.1,0L46.6,23.7L32.4,40C40.7,43.8,51.8,46,64,46z"/><path class="st8" d="M62,45.8c0.6,0,1.3,0,1.9,0c12.1,0,23.2-2.2,31.6-5.9L91,34.8c-6.7,2.6-14.7,4.3-23.4,4.7L62,45.8z"/><path class="st9" d="M80.3,37.9c-5.1,1.1-10.6,1.7-16.3,1.7c-6.7,0-13.1-0.8-18.9-2.3l-4.7,5.4l0.1,0.1c6.9,1.9,15,3,23.6,3  c6.9,0,13.5-0.7,19.4-2l1.2-1.2L80.3,37.9z"/><path class="st3" d="M65.9,45.8l-5.6-6.4c-8.7-0.4-16.7-2.1-23.4-4.7L32.4,40c8.4,3.6,19.4,5.9,31.6,5.9  C64.6,45.8,65.3,45.8,65.9,45.8z"/></svg>